<svg width="286" height="286" viewBox="0 0 286 286" fill="none" xmlns="http://www.w3.org/2000/svg">
<rect width="286" height="286" fill="#1E1E1E"/>
<rect width="286" height="286" fill="white"/>
<path d="M136 210.5L122 222L142 240V215L136 210.5Z" fill="#3AADAB"/>
<path d="M136 210.5L122 222L142 240V215L136 210.5Z" fill="#17305B"/>
<path d="M54 153H76C87.494 168.355 95.6517 176.552 113 190.5L96.5 199C77.5447 182.958 67.8378 173.213 54 153Z" fill="#3AADAB"/>
<path d="M54 153H76C87.494 168.355 95.6517 176.552 113 190.5L96.5 199C77.5447 182.958 67.8378 173.213 54 153Z" fill="#17305B"/>
<path d="M143 104L143.5 76.5C128.271 64.3317 121.418 60.0211 113 58C103.945 55.7905 98.2935 55.9565 87.5 58C80.2661 59.7502 76.3836 61.5648 69.5 65C63.7631 68.7326 58.5307 72.8862 55.5 76C52.4693 79.1137 50.4302 82.122 46.5 89.5C46.5 89.5 44.2861 95.0102 43.5 98C42.7139 100.99 42.335 102.828 42 107C41.5598 113.197 41.5529 116.485 42 122L43.5 134H63L61 122C60.0731 115.13 60.0199 111.924 60.5 107C61.9569 99.0584 63.2924 96.3166 66 92.5C71.6908 84.8022 73.746 82.8051 78.5 80C82.5779 77.2595 85.0156 76.906 89.5 76C92.8977 75.4981 95.8736 74.9657 100.5 75L108 76L113 78L118 81C126.404 85.4741 132.039 91.0421 143 104Z" fill="#3AADAB"/>
<path d="M143 104L143.5 76.5C128.271 64.3317 121.418 60.0211 113 58C103.945 55.7905 98.2935 55.9565 87.5 58C80.2661 59.7502 76.3836 61.5648 69.5 65C63.7631 68.7326 58.5307 72.8862 55.5 76C52.4693 79.1137 50.4302 82.122 46.5 89.5C46.5 89.5 44.2861 95.0102 43.5 98C42.7139 100.99 42.335 102.828 42 107C41.5598 113.197 41.5529 116.485 42 122L43.5 134H63L61 122C60.0731 115.13 60.0199 111.924 60.5 107C61.9569 99.0584 63.2924 96.3166 66 92.5C71.6908 84.8022 73.746 82.8051 78.5 80C82.5779 77.2595 85.0156 76.906 89.5 76C92.8977 75.4981 95.8736 74.9657 100.5 75L108 76L113 78L118 81C126.404 85.4741 132.039 91.0421 143 104Z" fill="#17305B"/>
<path d="M142 215V240C184.642 205.928 211.799 180.63 230 155C236.757 145.227 240.741 133.559 242.5 124C244.259 114.441 243.742 110.072 242.5 101.5C232.608 71.0749 210 56.5 189.5 56.5C169 56.5 161.5 62.5 157 65C152.5 67.5 143.5 76.5 143.5 76.5L143 104C151.255 91.9733 156.882 85.8815 171.5 78C179.5 75 188 75 192 75.5C196 76 203 77.1667 206.5 79.5C209.5 81.5 213.753 83.1706 218.5 89.5C221.5 93.5 224 101 224.5 103.5C225 106 225 107.5 225 110V117.5C224.727 126.327 223.534 130.817 219.5 138C216.261 143.157 213.219 147.579 206.5 156.5L193 170.5L174.5 188L156.5 204L142 215Z" fill="#3AADAB"/>
<path d="M31 140H110.5C110.5 140 120.5 113 122 109C123.5 105 127 105.5 128.5 109C130 112.5 142 159 142 159H143.5L150.5 140H174.5V147.5H156.5C156.5 147.5 146.5 173 145 174.5C143.5 176 141.5 176 140 174.5C138.5 173 126.5 126.5 126 125C125.5 123.5 124 124 123.5 125C123 126 115.5 147.5 115.5 147.5H31C27 147.5 27 140 31 140Z" fill="#3AADAB"/>
<circle cx="143" cy="51" r="11" fill="#EC5140"/>
<circle cx="184.5" cy="143.5" r="10.5" fill="#46B0AB"/>
<path d="M68.6352 249.16C42.2026 231.111 23.3614 204 15.7042 172.995C8.04701 141.99 12.1095 109.261 27.117 81.0479C42.1244 52.8352 67.0271 31.1124 97.0767 20.0217C127.126 8.93089 160.221 9.24796 190.049 20.9124C219.878 32.5768 244.355 54.7727 258.812 83.2677C273.27 111.763 276.696 144.564 268.439 175.416C260.182 206.268 240.818 233.014 214.041 250.553C187.263 268.093 167.697 276.683 136 272L122.5 264C152.434 268.422 184.766 261.073 210.054 244.509C235.342 227.946 253.628 202.688 261.426 173.553C269.223 144.417 265.987 113.441 252.334 86.5313C238.681 59.6218 215.566 38.6609 187.397 27.6454C159.228 16.63 127.975 16.3306 99.5976 26.8043C71.22 37.2779 47.7029 57.7921 33.5304 84.4351C19.3579 111.078 15.5215 141.986 22.7526 171.266C29.9838 200.546 41.5381 221.455 66.5 238.5C67.3338 242.663 67.8013 244.997 68.6352 249.16Z" fill="black"/>
<path d="M123 193.5C85.3998 207.159 72.0611 216.683 66 238L68 248L90 261C86.4825 254.363 85.2076 250.154 86 240.5C89.2488 225.282 97.2732 218.105 116.5 206.5L153.5 187C162.658 181.612 168.957 174.695 180 163C162.067 177.262 150.216 184.282 123 193.5Z" fill="#3AADAB" stroke="#33AAAA"/>
</svg>
