<svg width="1155" height="270" viewBox="0 0 1155 270" fill="none" xmlns="http://www.w3.org/2000/svg">
<path d="M57.74 63C47.9135 57.2873 45.3229 51.5191 43.24 39C300.702 56.7107 442.137 75.8245 687.24 132.5C688.818 137.003 688.238 139.417 684.24 143.5C678.27 147.589 674.849 147.804 668.74 148C674.672 148.752 677.342 149.703 680.74 152.5C683.287 158.098 683.135 161.155 680.74 166.5C679.156 168.519 677.209 168.523 673.24 168C689.739 172.316 699.114 174.443 714.24 182C718.559 190.029 714.72 197.376 700.24 201C693.069 202.161 683.774 201.009 666.546 198.085C687.116 202.697 750.656 220.144 753.24 222C756.281 224.184 755.24 235.5 751.74 235.5H743.24C743.24 235.5 744.342 237.911 742.24 238L736.24 237C737.918 238.652 737.872 239.296 736.24 240C726.377 240.818 718.751 238.866 707.74 237C709.841 240.366 709.175 241.842 705.74 243L697.24 244C697.623 244.893 697.77 245.442 697.24 247L694.74 247.5C695.139 248.76 694.874 249.29 693.74 250H687.24C687.43 251.205 686.962 251.856 685.74 253C684.249 253.812 683.18 253.857 680.74 253C681.956 254.879 681.786 255.69 679.24 256.5C678.141 256.476 677.427 256.4 675.74 256L671.74 255L667.74 254L659.24 254.5C659.072 255.507 658.902 256.061 658.24 257C657.569 258.262 656.21 258.005 653.74 257.5C653.74 257.5 654.24 258.5 654.74 260C655.24 261.5 653.74 261.5 653.74 261.5C653.74 261.5 655.24 263 653.74 264C652.24 265 636.712 263.411 624.74 261.5H616.74C617.744 264.204 617.53 265.732 614.24 268.5L557.24 258.5C547.922 257.467 542.922 257.576 534.24 258.5L374.74 232.5L310.24 225C301.028 223.547 282.182 221.978 280.74 221.5C278.52 220.764 258.587 219.442 255.74 218.5C253.302 217.693 226.246 214.961 212.24 215C203.158 213.139 197.503 212.343 187.24 211L148.24 208C141.86 207.606 138.515 206.867 133.24 204H95.74C89.7036 203.335 86.6101 201.808 81.24 198.5L83.74 196C75.2741 192.517 71.9368 190.058 69.24 184.5C73.8581 184.302 76.4846 183.444 81.24 180.5C75.5962 176.908 72.8884 175.46 65.74 170C64.1224 167.341 62.1194 166.08 57.74 164C49.363 163.759 44.9577 162.74 37.24 160.5C28.2361 153.222 22.7335 149.685 15.74 140C14.1808 138.61 14.5327 137.542 15.74 135.5C10.9704 134.97 8.94848 133.933 6.74001 130.5C5.28351 129.522 5.69761 128.645 6.74001 127C3.21715 127.137 2.07795 126.149 0.740005 123.5C13.0339 120.928 20.1112 120.938 32.74 121C26.4094 115.345 22.1027 112.66 21.24 103.5H26.24C21.8454 101.035 20.0058 99.328 18.24 95.5C16.9013 95.1072 16.8642 94.4726 18.24 92.5C12.2606 89.9708 11.1266 86.0839 9.24001 79C34.1981 78.2528 47.9317 78.9506 72.24 81C68.5657 77.3064 66.9883 74.731 65.74 68.5C66.5014 67.1584 67.3333 66.5198 69.24 65.5L57.74 63Z" fill="#EC5140"/>
<path d="M43.24 39C45.3229 51.5191 47.9135 57.2873 57.74 63L69.24 65.5C67.3333 66.5198 66.5014 67.1584 65.74 68.5C66.9883 74.7311 68.5657 77.3064 72.24 81C47.9317 78.9506 34.1981 78.2528 9.24001 79C11.1266 86.0839 12.2606 89.9708 18.24 92.5C16.8642 94.4726 16.9013 95.1072 18.24 95.5C20.0058 99.328 21.8454 101.035 26.24 103.5H21.24C22.1027 112.66 26.4094 115.345 32.74 121C20.1112 120.938 13.0339 120.928 0.740005 123.5C2.07795 126.149 3.21715 127.137 6.74001 127C5.69761 128.645 5.28351 129.522 6.74001 130.5C8.94848 133.933 10.9704 134.97 15.74 135.5C14.5327 137.542 14.1808 138.61 15.74 140C22.7335 149.685 28.2361 153.222 37.24 160.5C44.9577 162.74 49.363 163.759 57.74 164C62.1194 166.08 64.1224 167.341 65.74 170C72.8884 175.46 75.5962 176.908 81.24 180.5C76.4846 183.444 73.8581 184.302 69.24 184.5C71.9368 190.058 75.2741 192.517 83.74 196L81.24 198.5C86.6101 201.808 89.7036 203.335 95.74 204H133.24C138.515 206.867 141.86 207.606 148.24 208L187.24 211C197.503 212.343 203.157 213.139 212.24 215C226.246 214.961 253.302 217.693 255.74 218.5C258.587 219.442 278.52 220.764 280.74 221.5C282.182 221.978 301.028 223.547 310.24 225L374.74 232.5L534.24 258.5C542.922 257.576 547.922 257.467 557.24 258.5L614.24 268.5C617.53 265.732 617.744 264.204 616.74 261.5H624.74C636.712 263.411 652.24 265 653.74 264C655.24 263 653.74 261.5 653.74 261.5C653.74 261.5 655.24 261.5 654.74 260C654.24 258.5 653.74 257.5 653.74 257.5C656.21 258.005 657.569 258.262 658.24 257C658.902 256.061 659.072 255.507 659.24 254.5L667.74 254L671.74 255L675.74 256C677.427 256.4 678.141 256.476 679.24 256.5C681.786 255.69 681.956 254.879 680.74 253C683.18 253.857 684.249 253.812 685.74 253C686.962 251.856 687.43 251.205 687.24 250H693.74C694.874 249.29 695.139 248.76 694.74 247.5L697.24 247C697.77 245.442 697.623 244.893 697.24 244L705.74 243C709.176 241.843 709.841 240.366 707.74 237C718.751 238.866 726.377 240.818 736.24 240C737.872 239.296 737.918 238.652 736.24 237L742.24 238C744.342 237.911 743.24 235.5 743.24 235.5C743.24 235.5 748.24 235.5 751.74 235.5C755.24 235.5 756.281 224.184 753.24 222C750.199 219.816 662.748 196.041 660.24 197C681.595 200.712 692.239 202.295 700.24 201C714.72 197.376 718.559 190.029 714.24 182C699.114 174.443 689.739 172.316 673.24 168C677.209 168.523 679.156 168.519 680.74 166.5C683.135 161.155 683.287 158.098 680.74 152.5C677.342 149.703 674.672 148.752 668.74 148C674.849 147.804 678.27 147.589 684.24 143.5C688.238 139.417 688.818 137.003 687.24 132.5C442.137 75.8245 300.702 56.7107 43.24 39Z" stroke="#EC5140"/>
<path d="M218.74 199.5L204.74 211L224.74 229V204L218.74 199.5Z" fill="#3AADAB"/>
<path d="M218.74 199.5L204.74 211L224.74 229V204L218.74 199.5Z" fill="#17305B"/>
<path d="M136.74 142H158.74C170.234 157.355 178.392 165.552 195.74 179.5L179.24 188C160.285 171.958 150.578 162.213 136.74 142Z" fill="#3AADAB"/>
<path d="M136.74 142H158.74C170.234 157.355 178.392 165.552 195.74 179.5L179.24 188C160.285 171.958 150.578 162.213 136.74 142Z" fill="#17305B"/>
<path d="M225.74 93L226.24 65.5C211.011 53.3317 204.158 49.0211 195.74 47C186.685 44.7905 181.033 44.9564 170.24 47C163.006 48.7502 159.124 50.5648 152.24 54C146.503 57.7326 141.271 61.8862 138.24 65C135.209 68.1137 133.17 71.122 129.24 78.5C129.24 78.5 127.026 84.0102 126.24 87C125.454 89.9898 125.075 91.828 124.74 96C124.3 102.197 124.293 105.485 124.74 111L126.24 123H145.74L143.74 111C142.813 104.13 142.76 100.924 143.24 96C144.697 88.0584 146.032 85.3165 148.74 81.5C154.431 73.8022 156.486 71.8051 161.24 69C165.318 66.2595 167.756 65.906 172.24 65C175.638 64.4981 178.614 63.9657 183.24 64L190.74 65L195.74 67L200.74 70C209.144 74.4741 214.779 80.042 225.74 93Z" fill="#3AADAB"/>
<path d="M225.74 93L226.24 65.5C211.011 53.3317 204.158 49.0211 195.74 47C186.685 44.7905 181.033 44.9564 170.24 47C163.006 48.7502 159.124 50.5648 152.24 54C146.503 57.7326 141.271 61.8862 138.24 65C135.209 68.1137 133.17 71.122 129.24 78.5C129.24 78.5 127.026 84.0102 126.24 87C125.454 89.9898 125.075 91.828 124.74 96C124.3 102.197 124.293 105.485 124.74 111L126.24 123H145.74L143.74 111C142.813 104.13 142.76 100.924 143.24 96C144.697 88.0584 146.032 85.3165 148.74 81.5C154.431 73.8022 156.486 71.8051 161.24 69C165.318 66.2595 167.756 65.906 172.24 65C175.638 64.4981 178.614 63.9657 183.24 64L190.74 65L195.74 67L200.74 70C209.144 74.4741 214.779 80.042 225.74 93Z" fill="#17305B"/>
<path d="M224.74 204V229C267.382 194.928 294.539 169.63 312.74 144C319.497 134.227 323.481 122.559 325.24 113C326.999 103.441 326.482 99.0721 325.24 90.5C315.348 60.0749 292.74 45.5 272.24 45.5C251.74 45.5 244.24 51.5 239.74 54C235.24 56.5 226.24 65.5 226.24 65.5L225.74 93C233.995 80.9733 239.622 74.8815 254.24 67C262.24 64 270.74 64 274.74 64.5C278.74 65 285.74 66.1667 289.24 68.5C292.24 70.5 296.493 72.1706 301.24 78.5C304.24 82.5 306.74 90 307.24 92.5C307.74 95 307.74 96.5 307.74 99V106.5C307.467 115.326 306.274 119.817 302.24 127C299.001 132.157 295.959 136.578 289.24 145.5L275.74 159.5L257.24 177L239.24 193L224.74 204Z" fill="#3AADAB"/>
<path d="M113.74 129H193.24C193.24 129 203.24 102 204.74 98C206.24 94 209.74 94.5 211.24 98C212.74 101.5 224.74 148 224.74 148H226.24L233.24 129H257.24V136.5H239.24C239.24 136.5 229.24 162 227.74 163.5C226.24 165 224.24 165 222.74 163.5C221.24 162 209.24 115.5 208.74 114C208.24 112.5 206.74 113 206.24 114C205.74 115 198.24 136.5 198.24 136.5H113.74C109.74 136.5 109.74 129 113.74 129Z" fill="#3AADAB"/>
<circle cx="225.74" cy="40" r="11" fill="#EC5140"/>
<circle cx="267.24" cy="132.5" r="10.5" fill="#46B0AB"/>
<path d="M151.375 238.16C124.943 220.111 106.101 193 98.4442 161.995C90.787 130.99 94.8495 98.2606 109.857 70.0479C124.864 41.8352 149.767 20.1124 179.817 9.02164C209.866 -2.06912 242.961 -1.75206 272.789 9.91238C302.618 21.5768 327.095 43.7727 341.552 72.2677C356.01 100.763 359.436 133.564 351.179 164.416C342.922 195.268 323.558 222.014 296.781 239.553C270.003 257.093 250.437 265.683 218.74 261L205.24 253C235.174 257.422 267.506 250.073 292.794 233.509C318.082 216.946 336.368 191.688 344.166 162.553C351.963 133.417 348.727 102.441 335.074 75.5313C321.421 48.6217 298.306 27.6609 270.137 16.6454C241.968 5.62999 210.715 5.33056 182.338 15.8042C153.96 26.2779 130.443 46.792 116.27 73.435C102.098 100.078 98.2615 130.986 105.493 160.266C112.724 189.546 124.278 210.455 149.24 227.5C150.074 231.663 150.541 233.997 151.375 238.16Z" fill="black"/>
<path d="M205.74 182.5C168.14 196.159 154.801 205.682 148.74 227L150.74 237L172.74 250C169.222 243.363 167.948 239.154 168.74 229.5C171.989 214.282 180.013 207.105 199.24 195.5L236.24 176C245.398 170.612 251.697 163.695 262.74 152C244.807 166.262 232.956 173.282 205.74 182.5Z" fill="#3AADAB" stroke="#33AAAA"/>
<path d="M395.348 218V130.727H428.075C434.78 130.727 440.405 131.977 444.95 134.477C449.524 136.977 452.976 140.415 455.305 144.79C457.663 149.136 458.842 154.08 458.842 159.619C458.842 165.216 457.663 170.187 455.305 174.534C452.947 178.881 449.467 182.304 444.865 184.804C440.263 187.276 434.595 188.511 427.862 188.511H406.172V175.514H425.731C429.652 175.514 432.862 174.832 435.362 173.469C437.862 172.105 439.709 170.23 440.902 167.844C442.124 165.457 442.734 162.716 442.734 159.619C442.734 156.523 442.124 153.795 440.902 151.438C439.709 149.08 437.848 147.247 435.32 145.94C432.82 144.605 429.595 143.938 425.646 143.938H411.158V218H395.348ZM513.611 190.472V152.545H529.038V218H514.08V206.366H513.398C511.921 210.031 509.492 213.028 506.111 215.358C502.759 217.687 498.626 218.852 493.711 218.852C489.421 218.852 485.629 217.901 482.333 215.997C479.066 214.065 476.509 211.267 474.663 207.602C472.816 203.909 471.893 199.449 471.893 194.222V152.545H487.319V191.835C487.319 195.983 488.455 199.278 490.728 201.722C493.001 204.165 495.984 205.386 499.677 205.386C501.95 205.386 504.151 204.832 506.282 203.724C508.413 202.616 510.16 200.969 511.523 198.781C512.915 196.565 513.611 193.795 513.611 190.472ZM560.327 130.727V218H544.901V130.727H560.327ZM627.923 169.847L613.86 171.381C613.462 169.96 612.766 168.625 611.772 167.375C610.806 166.125 609.499 165.116 607.852 164.349C606.204 163.582 604.187 163.199 601.8 163.199C598.59 163.199 595.891 163.895 593.704 165.287C591.545 166.679 590.479 168.483 590.508 170.699C590.479 172.602 591.175 174.151 592.596 175.344C594.045 176.537 596.431 177.517 599.755 178.284L610.92 180.67C617.113 182.006 621.715 184.122 624.727 187.02C627.766 189.918 629.3 193.71 629.329 198.398C629.3 202.517 628.093 206.153 625.707 209.307C623.349 212.432 620.067 214.875 615.863 216.636C611.658 218.398 606.829 219.278 601.374 219.278C593.363 219.278 586.914 217.602 582.028 214.25C577.141 210.869 574.229 206.168 573.292 200.145L588.334 198.696C589.016 201.651 590.465 203.881 592.681 205.386C594.897 206.892 597.78 207.645 601.332 207.645C604.996 207.645 607.937 206.892 610.153 205.386C612.397 203.881 613.519 202.02 613.519 199.804C613.519 197.929 612.795 196.381 611.346 195.159C609.925 193.937 607.709 193 604.698 192.347L593.533 190.003C587.255 188.696 582.61 186.494 579.599 183.398C576.587 180.273 575.096 176.324 575.124 171.551C575.096 167.517 576.19 164.023 578.405 161.068C580.65 158.085 583.761 155.784 587.738 154.165C591.744 152.517 596.36 151.693 601.587 151.693C609.258 151.693 615.295 153.327 619.698 156.594C624.13 159.861 626.871 164.278 627.923 169.847Z" fill="#17305B"/>
<path d="M655.131 130.727V139.42C655.131 141.92 654.648 144.52 653.682 147.219C652.745 149.889 651.452 152.446 649.805 154.889C648.157 157.304 646.282 159.378 644.18 161.111L637.021 156.466C638.583 154.108 639.947 151.565 641.111 148.838C642.276 146.082 642.859 142.972 642.859 139.506V130.727H655.131ZM746.378 174.364C746.378 183.767 744.616 191.821 741.094 198.526C737.599 205.202 732.827 210.315 726.776 213.866C720.753 217.418 713.92 219.193 706.278 219.193C698.636 219.193 691.79 217.418 685.739 213.866C679.716 210.287 674.943 205.159 671.42 198.483C667.926 191.778 666.179 183.739 666.179 174.364C666.179 164.96 667.926 156.92 671.42 150.244C674.943 143.54 679.716 138.412 685.739 134.861C691.79 131.31 698.636 129.534 706.278 129.534C713.92 129.534 720.753 131.31 726.776 134.861C732.827 138.412 737.599 143.54 741.094 150.244C744.616 156.92 746.378 164.96 746.378 174.364ZM730.483 174.364C730.483 167.744 729.446 162.162 727.372 157.616C725.327 153.043 722.486 149.591 718.849 147.261C715.213 144.903 711.023 143.724 706.278 143.724C701.534 143.724 697.344 144.903 693.707 147.261C690.071 149.591 687.216 153.043 685.142 157.616C683.097 162.162 682.074 167.744 682.074 174.364C682.074 180.983 683.097 186.58 685.142 191.153C687.216 195.699 690.071 199.151 693.707 201.509C697.344 203.838 701.534 205.003 706.278 205.003C711.023 205.003 715.213 203.838 718.849 201.509C722.486 199.151 725.327 195.699 727.372 191.153C729.446 186.58 730.483 180.983 730.483 174.364ZM760.643 218V152.545H775.6V163.455H776.282C777.475 159.676 779.521 156.764 782.418 154.719C785.344 152.645 788.682 151.608 792.432 151.608C793.285 151.608 794.236 151.651 795.288 151.736C796.367 151.793 797.262 151.892 797.972 152.034V166.224C797.319 165.997 796.282 165.798 794.861 165.628C793.469 165.429 792.12 165.33 790.813 165.33C788.001 165.33 785.472 165.94 783.228 167.162C781.012 168.355 779.265 170.017 777.986 172.148C776.708 174.278 776.069 176.736 776.069 179.52V218H760.643ZM823.647 130.727V218H808.221V130.727H823.647ZM868.487 219.278C861.925 219.278 856.257 217.915 851.484 215.188C846.74 212.432 843.089 208.54 840.533 203.511C837.976 198.455 836.697 192.503 836.697 185.656C836.697 178.923 837.976 173.014 840.533 167.929C843.118 162.815 846.726 158.838 851.356 155.997C855.987 153.128 861.428 151.693 867.678 151.693C871.712 151.693 875.518 152.347 879.098 153.653C882.706 154.932 885.888 156.92 888.643 159.619C891.428 162.318 893.615 165.756 895.206 169.932C896.797 174.08 897.592 179.023 897.592 184.761V189.491H843.942V179.094H882.805C882.777 176.139 882.138 173.511 880.888 171.21C879.638 168.881 877.891 167.048 875.646 165.713C873.43 164.378 870.845 163.71 867.891 163.71C864.737 163.71 861.967 164.477 859.581 166.011C857.195 167.517 855.334 169.506 853.999 171.977C852.692 174.42 852.024 177.105 851.996 180.031V189.108C851.996 192.915 852.692 196.182 854.084 198.909C855.476 201.608 857.422 203.682 859.922 205.131C862.422 206.551 865.348 207.261 868.7 207.261C870.945 207.261 872.976 206.949 874.794 206.324C876.612 205.67 878.189 204.719 879.524 203.469C880.859 202.219 881.868 200.67 882.55 198.824L896.953 200.443C896.044 204.25 894.311 207.574 891.754 210.415C889.226 213.227 885.987 215.415 882.038 216.977C878.089 218.511 873.572 219.278 868.487 219.278ZM861.328 143.938L870.874 124.463H885.959L872.876 143.938H861.328ZM929.478 219.321C925.33 219.321 921.594 218.582 918.271 217.105C914.975 215.599 912.361 213.384 910.43 210.457C908.526 207.531 907.575 203.923 907.575 199.634C907.575 195.94 908.256 192.886 909.62 190.472C910.984 188.057 912.844 186.125 915.202 184.676C917.56 183.227 920.217 182.134 923.171 181.395C926.154 180.628 929.236 180.074 932.418 179.733C936.254 179.335 939.364 178.98 941.751 178.668C944.137 178.327 945.87 177.815 946.95 177.134C948.057 176.423 948.611 175.33 948.611 173.852V173.597C948.611 170.386 947.66 167.901 945.756 166.139C943.853 164.378 941.111 163.497 937.532 163.497C933.754 163.497 930.756 164.321 928.54 165.969C926.353 167.616 924.876 169.562 924.109 171.807L909.705 169.761C910.842 165.784 912.717 162.46 915.33 159.79C917.944 157.091 921.14 155.074 924.918 153.739C928.697 152.375 932.873 151.693 937.447 151.693C940.6 151.693 943.739 152.062 946.864 152.801C949.989 153.54 952.844 154.761 955.43 156.466C958.015 158.142 960.089 160.429 961.651 163.327C963.242 166.224 964.038 169.847 964.038 174.193V218H949.208V209.009H948.697C947.759 210.827 946.438 212.531 944.734 214.122C943.057 215.685 940.941 216.949 938.384 217.915C935.856 218.852 932.887 219.321 929.478 219.321ZM933.484 207.986C936.58 207.986 939.265 207.375 941.538 206.153C943.81 204.903 945.557 203.256 946.779 201.21C948.029 199.165 948.654 196.935 948.654 194.52V186.807C948.171 187.205 947.347 187.574 946.182 187.915C945.046 188.256 943.768 188.554 942.347 188.81C940.927 189.065 939.521 189.293 938.129 189.491C936.736 189.69 935.529 189.861 934.506 190.003C932.205 190.315 930.146 190.827 928.327 191.537C926.509 192.247 925.075 193.241 924.023 194.52C922.972 195.77 922.447 197.389 922.447 199.378C922.447 202.219 923.484 204.364 925.557 205.812C927.631 207.261 930.273 207.986 933.484 207.986ZM994.975 179.648V218H979.549V152.545H994.293V163.668H995.06C996.566 160.003 998.967 157.091 1002.26 154.932C1005.59 152.773 1009.69 151.693 1014.58 151.693C1019.09 151.693 1023.03 152.659 1026.38 154.591C1029.76 156.523 1032.38 159.321 1034.22 162.986C1036.1 166.651 1037.02 171.097 1036.99 176.324V218H1021.57V178.71C1021.57 174.335 1020.43 170.912 1018.16 168.44C1015.91 165.969 1012.8 164.733 1008.82 164.733C1006.13 164.733 1003.73 165.33 1001.62 166.523C999.549 167.687 997.915 169.378 996.722 171.594C995.557 173.81 994.975 176.494 994.975 179.648ZM1104.41 169.847L1090.34 171.381C1089.95 169.96 1089.25 168.625 1088.26 167.375C1087.29 166.125 1085.98 165.116 1084.34 164.349C1082.69 163.582 1080.67 163.199 1078.28 163.199C1075.07 163.199 1072.38 163.895 1070.19 165.287C1068.03 166.679 1066.96 168.483 1066.99 170.699C1066.96 172.602 1067.66 174.151 1069.08 175.344C1070.53 176.537 1072.92 177.517 1076.24 178.284L1087.4 180.67C1093.6 182.006 1098.2 184.122 1101.21 187.02C1104.25 189.918 1105.78 193.71 1105.81 198.398C1105.78 202.517 1104.58 206.153 1102.19 209.307C1099.83 212.432 1096.55 214.875 1092.35 216.636C1088.14 218.398 1083.31 219.278 1077.86 219.278C1069.85 219.278 1063.4 217.602 1058.51 214.25C1053.63 210.869 1050.71 206.168 1049.78 200.145L1064.82 198.696C1065.5 201.651 1066.95 203.881 1069.17 205.386C1071.38 206.892 1074.26 207.645 1077.82 207.645C1081.48 207.645 1084.42 206.892 1086.64 205.386C1088.88 203.881 1090 202.02 1090 199.804C1090 197.929 1089.28 196.381 1087.83 195.159C1086.41 193.937 1084.19 193 1081.18 192.347L1070.02 190.003C1063.74 188.696 1059.09 186.494 1056.08 183.398C1053.07 180.273 1051.58 176.324 1051.61 171.551C1051.58 167.517 1052.67 164.023 1054.89 161.068C1057.13 158.085 1060.24 155.784 1064.22 154.165C1068.23 152.517 1072.84 151.693 1078.07 151.693C1085.74 151.693 1091.78 153.327 1096.18 156.594C1100.61 159.861 1103.36 164.278 1104.41 169.847Z" fill="#3AADAB"/>
</svg>
