<svg width="375" height="375" viewBox="0 0 375 375" fill="none" xmlns="http://www.w3.org/2000/svg">
<rect width="375" height="375" fill="#1E1E1E"/>
<rect width="375" height="375" fill="white"/>
<path d="M188 212.5L174 224L194 242V217L188 212.5Z" fill="#3AADAB"/>
<path d="M188 212.5L174 224L194 242V217L188 212.5Z" fill="#17305B"/>
<path d="M106 155H128C139.494 170.355 147.652 178.552 165 192.5L148.5 201C129.545 184.958 119.838 175.213 106 155Z" fill="#3AADAB"/>
<path d="M106 155H128C139.494 170.355 147.652 178.552 165 192.5L148.5 201C129.545 184.958 119.838 175.213 106 155Z" fill="#17305B"/>
<path d="M195 106L195.5 78.5C180.271 66.3317 173.418 62.0211 165 60C155.945 57.7905 150.293 57.9565 139.5 60C132.266 61.7502 128.384 63.5648 121.5 67C115.763 70.7326 110.531 74.8862 107.5 78C104.469 81.1137 102.43 84.122 98.5 91.5C98.5 91.5 96.2861 97.0102 95.5 100C94.7139 102.99 94.335 104.828 94 109C93.5598 115.197 93.5529 118.485 94 124L95.5 136H115L113 124C112.073 117.13 112.02 113.924 112.5 109C113.957 101.058 115.292 98.3166 118 94.5C123.691 86.8022 125.746 84.8051 130.5 82C134.578 79.2595 137.016 78.906 141.5 78C144.898 77.4981 147.874 76.9657 152.5 77L160 78L165 80L170 83C178.404 87.4741 184.039 93.0421 195 106Z" fill="#3AADAB"/>
<path d="M195 106L195.5 78.5C180.271 66.3317 173.418 62.0211 165 60C155.945 57.7905 150.293 57.9565 139.5 60C132.266 61.7502 128.384 63.5648 121.5 67C115.763 70.7326 110.531 74.8862 107.5 78C104.469 81.1137 102.43 84.122 98.5 91.5C98.5 91.5 96.2861 97.0102 95.5 100C94.7139 102.99 94.335 104.828 94 109C93.5598 115.197 93.5529 118.485 94 124L95.5 136H115L113 124C112.073 117.13 112.02 113.924 112.5 109C113.957 101.058 115.292 98.3166 118 94.5C123.691 86.8022 125.746 84.8051 130.5 82C134.578 79.2595 137.016 78.906 141.5 78C144.898 77.4981 147.874 76.9657 152.5 77L160 78L165 80L170 83C178.404 87.4741 184.039 93.0421 195 106Z" fill="#17305B"/>
<path d="M194 217V242C236.642 207.928 263.799 182.63 282 157C288.757 147.227 292.741 135.559 294.5 126C296.259 116.441 295.742 112.072 294.5 103.5C284.608 73.0749 262 58.5 241.5 58.5C221 58.5 213.5 64.5 209 67C204.5 69.5 195.5 78.5 195.5 78.5L195 106C203.255 93.9733 208.882 87.8815 223.5 80C231.5 77 240 77 244 77.5C248 78 255 79.1667 258.5 81.5C261.5 83.5 265.753 85.1706 270.5 91.5C273.5 95.5 276 103 276.5 105.5C277 108 277 109.5 277 112V119.5C276.727 128.327 275.534 132.817 271.5 140C268.261 145.157 265.219 149.579 258.5 158.5L245 172.5L226.5 190L208.5 206L194 217Z" fill="#3AADAB"/>
<path d="M83 142H162.5C162.5 142 172.5 115 174 111C175.5 107 179 107.5 180.5 111C182 114.5 194 161 194 161H195.5L202.5 142H226.5V149.5H208.5C208.5 149.5 198.5 175 197 176.5C195.5 178 193.5 178 192 176.5C190.5 175 178.5 128.5 178 127C177.5 125.5 176 126 175.5 127C175 128 167.5 149.5 167.5 149.5H83C79 149.5 79 142 83 142Z" fill="#3AADAB"/>
<circle cx="195" cy="53" r="11" fill="#EC5140"/>
<circle cx="236.5" cy="145.5" r="10.5" fill="#46B0AB"/>
<path d="M120.635 251.16C94.2026 233.111 75.3614 206 67.7042 174.995C60.047 143.99 64.1095 111.261 79.117 83.0479C94.1244 54.8352 119.027 33.1124 149.077 22.0217C179.126 10.9309 212.221 11.248 242.049 22.9124C271.878 34.5768 296.355 56.7727 310.812 85.2677C325.27 113.763 328.696 146.564 320.439 177.416C312.182 208.268 292.818 235.014 266.041 252.553C239.263 270.093 219.697 278.683 188 274L174.5 266C204.434 270.422 236.766 263.073 262.054 246.509C287.342 229.946 305.628 204.688 313.426 175.553C321.223 146.417 317.987 115.441 304.334 88.5313C290.681 61.6218 267.566 40.6609 239.397 29.6454C211.228 18.63 179.975 18.3306 151.598 28.8043C123.22 39.2779 99.7029 59.7921 85.5304 86.4351C71.3579 113.078 67.5215 143.986 74.7526 173.266C81.9838 202.546 93.5381 223.455 118.5 240.5C119.334 244.663 119.801 246.997 120.635 251.16Z" fill="black"/>
<path d="M175 195.5C137.4 209.159 124.061 218.683 118 240L120 250L142 263C138.482 256.363 137.208 252.154 138 242.5C141.249 227.282 149.273 220.105 168.5 208.5L205.5 189C214.658 183.612 220.957 176.695 232 165C214.067 179.262 202.216 186.282 175 195.5Z" fill="#3AADAB" stroke="#33AAAA"/>
<path d="M13.304 334V290.364H29.6676C33.0199 290.364 35.8324 290.989 38.1051 292.239C40.392 293.489 42.1179 295.207 43.2827 297.395C44.4616 299.568 45.0511 302.04 45.0511 304.81C45.0511 307.608 44.4616 310.094 43.2827 312.267C42.1037 314.44 40.3636 316.152 38.0625 317.402C35.7614 318.638 32.9276 319.256 29.5611 319.256H18.7159V312.757H28.4957C30.456 312.757 32.0611 312.416 33.3111 311.734C34.5611 311.053 35.4844 310.115 36.081 308.922C36.6918 307.729 36.9972 306.358 36.9972 304.81C36.9972 303.261 36.6918 301.898 36.081 300.719C35.4844 299.54 34.554 298.624 33.2898 297.97C32.0398 297.303 30.4276 296.969 28.4531 296.969H21.2088V334H13.304ZM72.4357 320.236V301.273H80.1488V334H72.6701V328.183H72.3292C71.5906 330.016 70.3761 331.514 68.6857 332.679C67.0096 333.844 64.9428 334.426 62.4854 334.426C60.3406 334.426 58.4442 333.95 56.7965 332.999C55.163 332.033 53.8846 330.634 52.9613 328.801C52.038 326.955 51.5763 324.724 51.5763 322.111V301.273H59.2894V320.918C59.2894 322.991 59.8576 324.639 60.994 325.861C62.1303 327.082 63.6218 327.693 65.4684 327.693C66.6048 327.693 67.7056 327.416 68.771 326.862C69.8363 326.308 70.7099 325.484 71.3917 324.391C72.0877 323.283 72.4357 321.898 72.4357 320.236ZM95.7933 290.364V334H88.0803V290.364H95.7933ZM129.591 309.923L122.56 310.69C122.361 309.98 122.013 309.312 121.516 308.688C121.033 308.062 120.38 307.558 119.556 307.175C118.732 306.791 117.723 306.599 116.53 306.599C114.925 306.599 113.576 306.947 112.482 307.643C111.402 308.339 110.87 309.241 110.884 310.349C110.87 311.301 111.218 312.075 111.928 312.672C112.652 313.268 113.846 313.759 115.507 314.142L121.09 315.335C124.186 316.003 126.488 317.061 127.993 318.51C129.513 319.959 130.28 321.855 130.294 324.199C130.28 326.259 129.676 328.077 128.483 329.653C127.304 331.216 125.664 332.437 123.561 333.318C121.459 334.199 119.044 334.639 116.317 334.639C112.311 334.639 109.087 333.801 106.644 332.125C104.201 330.435 102.745 328.084 102.276 325.072L109.797 324.348C110.138 325.825 110.863 326.94 111.971 327.693C113.078 328.446 114.52 328.822 116.296 328.822C118.128 328.822 119.598 328.446 120.706 327.693C121.828 326.94 122.39 326.01 122.39 324.902C122.39 323.964 122.027 323.19 121.303 322.58C120.593 321.969 119.485 321.5 117.979 321.173L112.397 320.001C109.257 319.348 106.935 318.247 105.429 316.699C103.924 315.136 103.178 313.162 103.192 310.776C103.178 308.759 103.725 307.011 104.833 305.534C105.955 304.043 107.51 302.892 109.499 302.082C111.502 301.259 113.81 300.847 116.424 300.847C120.259 300.847 123.277 301.663 125.479 303.297C127.695 304.93 129.066 307.139 129.591 309.923Z" fill="#17305B"/>
<path d="M143.196 290.364V294.71C143.196 295.96 142.954 297.26 142.471 298.609C142.002 299.945 141.356 301.223 140.532 302.445C139.708 303.652 138.771 304.689 137.72 305.555L134.14 303.233C134.922 302.054 135.603 300.783 136.186 299.419C136.768 298.041 137.059 296.486 137.059 294.753V290.364H143.196ZM188.819 312.182C188.819 316.884 187.938 320.911 186.177 324.263C184.43 327.601 182.043 330.158 179.018 331.933C176.006 333.709 172.59 334.597 168.769 334.597C164.948 334.597 161.525 333.709 158.499 331.933C155.488 330.143 153.102 327.58 151.34 324.241C149.593 320.889 148.719 316.869 148.719 312.182C148.719 307.48 149.593 303.46 151.34 300.122C153.102 296.77 155.488 294.206 158.499 292.43C161.525 290.655 164.948 289.767 168.769 289.767C172.59 289.767 176.006 290.655 179.018 292.43C182.043 294.206 184.43 296.77 186.177 300.122C187.938 303.46 188.819 307.48 188.819 312.182ZM180.871 312.182C180.871 308.872 180.353 306.081 179.316 303.808C178.293 301.521 176.873 299.795 175.055 298.631C173.237 297.452 171.141 296.862 168.769 296.862C166.397 296.862 164.302 297.452 162.484 298.631C160.665 299.795 159.238 301.521 158.201 303.808C157.178 306.081 156.667 308.872 156.667 312.182C156.667 315.491 157.178 318.29 158.201 320.577C159.238 322.849 160.665 324.575 162.484 325.754C164.302 326.919 166.397 327.501 168.769 327.501C171.141 327.501 173.237 326.919 175.055 325.754C176.873 324.575 178.293 322.849 179.316 320.577C180.353 318.29 180.871 315.491 180.871 312.182ZM195.951 334V301.273H203.43V306.727H203.771C204.368 304.838 205.39 303.382 206.839 302.359C208.302 301.322 209.971 300.804 211.846 300.804C212.272 300.804 212.748 300.825 213.274 300.868C213.814 300.896 214.261 300.946 214.616 301.017V308.112C214.289 307.999 213.771 307.899 213.061 307.814C212.365 307.714 211.69 307.665 211.037 307.665C209.63 307.665 208.366 307.97 207.244 308.581C206.136 309.178 205.262 310.009 204.623 311.074C203.984 312.139 203.664 313.368 203.664 314.76V334H195.951ZM227.453 290.364V334H219.74V290.364H227.453ZM249.874 334.639C246.592 334.639 243.759 333.957 241.372 332.594C239 331.216 237.175 329.27 235.896 326.756C234.618 324.227 233.979 321.251 233.979 317.828C233.979 314.462 234.618 311.507 235.896 308.964C237.189 306.408 238.993 304.419 241.308 302.999C243.624 301.564 246.344 300.847 249.469 300.847C251.486 300.847 253.389 301.173 255.179 301.827C256.983 302.466 258.574 303.46 259.952 304.81C261.344 306.159 262.438 307.878 263.233 309.966C264.028 312.04 264.426 314.511 264.426 317.381V319.746H237.601V314.547H257.033C257.018 313.07 256.699 311.756 256.074 310.605C255.449 309.44 254.575 308.524 253.453 307.857C252.345 307.189 251.053 306.855 249.575 306.855C247.999 306.855 246.614 307.239 245.42 308.006C244.227 308.759 243.297 309.753 242.629 310.989C241.976 312.21 241.642 313.553 241.628 315.016V319.554C241.628 321.457 241.976 323.091 242.672 324.455C243.368 325.804 244.341 326.841 245.591 327.565C246.841 328.276 248.304 328.631 249.98 328.631C251.102 328.631 252.118 328.474 253.027 328.162C253.936 327.835 254.724 327.359 255.392 326.734C256.06 326.109 256.564 325.335 256.905 324.412L264.107 325.222C263.652 327.125 262.786 328.787 261.507 330.207C260.243 331.614 258.624 332.707 256.649 333.489C254.675 334.256 252.416 334.639 249.874 334.639ZM246.294 296.969L251.067 287.232H258.609L252.068 296.969H246.294ZM280.369 334.661C278.295 334.661 276.427 334.291 274.765 333.553C273.118 332.8 271.811 331.692 270.845 330.229C269.893 328.766 269.417 326.962 269.417 324.817C269.417 322.97 269.758 321.443 270.44 320.236C271.122 319.028 272.052 318.062 273.231 317.338C274.41 316.614 275.738 316.067 277.216 315.697C278.707 315.314 280.248 315.037 281.839 314.866C283.757 314.668 285.312 314.49 286.505 314.334C287.699 314.163 288.565 313.908 289.105 313.567C289.659 313.212 289.936 312.665 289.936 311.926V311.798C289.936 310.193 289.46 308.95 288.508 308.07C287.556 307.189 286.186 306.749 284.396 306.749C282.507 306.749 281.008 307.161 279.9 307.984C278.806 308.808 278.068 309.781 277.684 310.903L270.483 309.881C271.051 307.892 271.988 306.23 273.295 304.895C274.602 303.545 276.2 302.537 278.089 301.869C279.978 301.188 282.066 300.847 284.353 300.847C285.93 300.847 287.5 301.031 289.062 301.401C290.625 301.77 292.052 302.381 293.345 303.233C294.637 304.071 295.674 305.214 296.456 306.663C297.251 308.112 297.649 309.923 297.649 312.097V334H290.234V329.504H289.978C289.51 330.413 288.849 331.266 287.997 332.061C287.159 332.842 286.1 333.474 284.822 333.957C283.558 334.426 282.074 334.661 280.369 334.661ZM282.372 328.993C283.92 328.993 285.262 328.687 286.399 328.077C287.535 327.452 288.409 326.628 289.02 325.605C289.645 324.582 289.957 323.467 289.957 322.26V318.403C289.716 318.602 289.304 318.787 288.721 318.957C288.153 319.128 287.514 319.277 286.804 319.405C286.093 319.533 285.39 319.646 284.694 319.746C283.998 319.845 283.395 319.93 282.883 320.001C281.733 320.158 280.703 320.413 279.794 320.768C278.885 321.124 278.167 321.621 277.642 322.26C277.116 322.885 276.853 323.695 276.853 324.689C276.853 326.109 277.372 327.182 278.409 327.906C279.446 328.631 280.767 328.993 282.372 328.993ZM313.118 314.824V334H305.404V301.273H312.777V306.834H313.16C313.913 305.001 315.113 303.545 316.761 302.466C318.423 301.386 320.475 300.847 322.919 300.847C325.177 300.847 327.145 301.33 328.821 302.295C330.511 303.261 331.818 304.661 332.741 306.493C333.679 308.325 334.14 310.548 334.126 313.162V334H326.413V314.355C326.413 312.168 325.845 310.456 324.708 309.22C323.586 307.984 322.031 307.366 320.042 307.366C318.693 307.366 317.493 307.665 316.441 308.261C315.404 308.844 314.588 309.689 313.991 310.797C313.409 311.905 313.118 313.247 313.118 314.824ZM367.833 309.923L360.802 310.69C360.603 309.98 360.255 309.312 359.758 308.688C359.275 308.062 358.622 307.558 357.798 307.175C356.974 306.791 355.966 306.599 354.772 306.599C353.167 306.599 351.818 306.947 350.724 307.643C349.645 308.339 349.112 309.241 349.126 310.349C349.112 311.301 349.46 312.075 350.17 312.672C350.895 313.268 352.088 313.759 353.75 314.142L359.332 315.335C362.429 316.003 364.73 317.061 366.235 318.51C367.755 319.959 368.522 321.855 368.537 324.199C368.522 326.259 367.919 328.077 366.725 329.653C365.547 331.216 363.906 332.437 361.804 333.318C359.701 334.199 357.287 334.639 354.559 334.639C350.554 334.639 347.329 333.801 344.886 332.125C342.443 330.435 340.987 328.084 340.518 325.072L348.039 324.348C348.38 325.825 349.105 326.94 350.213 327.693C351.321 328.446 352.762 328.822 354.538 328.822C356.37 328.822 357.841 328.446 358.949 327.693C360.071 326.94 360.632 326.01 360.632 324.902C360.632 323.964 360.27 323.19 359.545 322.58C358.835 321.969 357.727 321.5 356.221 321.173L350.639 320.001C347.5 319.348 345.177 318.247 343.672 316.699C342.166 315.136 341.42 313.162 341.434 310.776C341.42 308.759 341.967 307.011 343.075 305.534C344.197 304.043 345.752 302.892 347.741 302.082C349.744 301.259 352.052 300.847 354.666 300.847C358.501 300.847 361.52 301.663 363.721 303.297C365.937 304.93 367.308 307.139 367.833 309.923Z" fill="#3AADAB"/>
<path d="M13.9815 362V345.636H15.9631V360.242H23.5696V362H13.9815ZM29.9936 362.288C29.2159 362.288 28.5101 362.141 27.8762 361.848C27.2424 361.55 26.739 361.121 26.3661 360.562C25.9933 359.997 25.8068 359.315 25.8068 358.516C25.8068 357.813 25.9453 357.243 26.2223 356.806C26.4993 356.364 26.8695 356.018 27.3329 355.768C27.7963 355.517 28.3077 355.331 28.867 355.208C29.4316 355.081 29.9989 354.979 30.5689 354.905C31.3146 354.809 31.9192 354.737 32.3826 354.689C32.8514 354.636 33.1923 354.548 33.4054 354.425C33.6238 354.303 33.733 354.09 33.733 353.786V353.722C33.733 352.934 33.5172 352.321 33.0858 351.885C32.6596 351.448 32.0124 351.229 31.1442 351.229C30.244 351.229 29.5382 351.426 29.0268 351.821C28.5154 352.215 28.1559 352.636 27.9482 353.083L26.1584 352.444C26.478 351.698 26.9041 351.118 27.4368 350.702C27.9748 350.281 28.5607 349.988 29.1946 349.823C29.8338 349.653 30.4624 349.567 31.0803 349.567C31.4744 349.567 31.9272 349.615 32.4386 349.711C32.9553 349.802 33.4533 349.991 33.9327 350.279C34.4174 350.566 34.8196 351 35.1392 351.581C35.4588 352.162 35.6186 352.939 35.6186 353.914V362H33.733V360.338H33.6371C33.5092 360.604 33.2962 360.889 32.9979 361.193C32.6996 361.497 32.3027 361.755 31.8074 361.968C31.312 362.181 30.7074 362.288 29.9936 362.288ZM30.2812 360.594C31.027 360.594 31.6555 360.447 32.1669 360.154C32.6836 359.861 33.0724 359.483 33.3335 359.02C33.5998 358.556 33.733 358.069 33.733 357.558V355.832C33.6531 355.928 33.4773 356.015 33.2056 356.095C32.9393 356.17 32.6303 356.237 32.2788 356.295C31.9325 356.348 31.5943 356.396 31.264 356.439C30.9391 356.476 30.6754 356.508 30.473 356.535C29.983 356.599 29.5249 356.703 29.0987 356.846C28.6779 356.985 28.337 357.195 28.076 357.478C27.8203 357.755 27.6925 358.133 27.6925 358.612C27.6925 359.267 27.9348 359.763 28.4196 360.098C28.9096 360.429 29.5302 360.594 30.2812 360.594ZM50.3742 362.256C49.2237 362.256 48.2329 361.984 47.4019 361.441C46.571 360.897 45.9318 360.149 45.4843 359.195C45.0369 358.242 44.8132 357.153 44.8132 355.928C44.8132 354.681 45.0422 353.581 45.5003 352.628C45.9637 351.669 46.6083 350.92 47.4339 350.382C48.2649 349.839 49.2343 349.567 50.3423 349.567C51.2052 349.567 51.9829 349.727 52.6754 350.047C53.3679 350.366 53.9351 350.814 54.3773 351.389C54.8194 351.964 55.0937 352.636 55.2002 353.403H53.3146C53.1708 352.843 52.8512 352.348 52.3558 351.917C51.8657 351.48 51.2052 351.261 50.3742 351.261C49.6392 351.261 48.9946 351.453 48.4407 351.837C47.892 352.215 47.4632 352.75 47.1543 353.443C46.8506 354.13 46.6988 354.937 46.6988 355.864C46.6988 356.812 46.848 357.637 47.1463 358.341C47.4499 359.044 47.876 359.59 48.4247 359.979C48.9786 360.367 49.6285 360.562 50.3742 360.562C50.8643 360.562 51.3091 360.477 51.7086 360.306C52.1081 360.136 52.4463 359.891 52.7233 359.571C53.0003 359.251 53.1974 358.868 53.3146 358.42H55.2002C55.0937 359.145 54.83 359.797 54.4092 360.378C53.9937 360.953 53.4424 361.411 52.7553 361.752C52.0735 362.088 51.2798 362.256 50.3742 362.256ZM61.5683 362.288C60.7906 362.288 60.0848 362.141 59.4509 361.848C58.8171 361.55 58.3137 361.121 57.9408 360.562C57.568 359.997 57.3815 359.315 57.3815 358.516C57.3815 357.813 57.52 357.243 57.797 356.806C58.074 356.364 58.4442 356.018 58.9076 355.768C59.371 355.517 59.8824 355.331 60.4417 355.208C61.0063 355.081 61.5736 354.979 62.1436 354.905C62.8893 354.809 63.4939 354.737 63.9573 354.689C64.4261 354.636 64.767 354.548 64.9801 354.425C65.1985 354.303 65.3077 354.09 65.3077 353.786V353.722C65.3077 352.934 65.0919 352.321 64.6605 351.885C64.2343 351.448 63.5871 351.229 62.7189 351.229C61.8187 351.229 61.1129 351.426 60.6015 351.821C60.0902 352.215 59.7306 352.636 59.5229 353.083L57.7331 352.444C58.0527 351.698 58.4788 351.118 59.0115 350.702C59.5495 350.281 60.1354 349.988 60.7693 349.823C61.4085 349.653 62.0371 349.567 62.655 349.567C63.0491 349.567 63.5019 349.615 64.0133 349.711C64.53 349.802 65.028 349.991 65.5074 350.279C65.9921 350.566 66.3943 351 66.7139 351.581C67.0335 352.162 67.1933 352.939 67.1933 353.914V362H65.3077V360.338H65.2118C65.0839 360.604 64.8709 360.889 64.5726 361.193C64.2743 361.497 63.8774 361.755 63.3821 361.968C62.8867 362.181 62.2821 362.288 61.5683 362.288ZM61.856 360.594C62.6017 360.594 63.2302 360.447 63.7416 360.154C64.2583 359.861 64.6472 359.483 64.9082 359.02C65.1745 358.556 65.3077 358.069 65.3077 357.558V355.832C65.2278 355.928 65.052 356.015 64.7803 356.095C64.514 356.17 64.205 356.237 63.8535 356.295C63.5072 356.348 63.169 356.396 62.8387 356.439C62.5138 356.476 62.2501 356.508 62.0477 356.535C61.5577 356.599 61.0996 356.703 60.6734 356.846C60.2526 356.985 59.9117 357.195 59.6507 357.478C59.395 357.755 59.2672 358.133 59.2672 358.612C59.2672 359.267 59.5095 359.763 59.9943 360.098C60.4843 360.429 61.1049 360.594 61.856 360.594ZM70.635 362V349.727H72.4568V351.581H72.5846C72.8083 350.974 73.2132 350.481 73.7991 350.103C74.385 349.725 75.0455 349.536 75.7806 349.536C75.9191 349.536 76.0922 349.538 76.3 349.544C76.5077 349.549 76.6649 349.557 76.7714 349.567V351.485C76.7075 351.469 76.561 351.445 76.3319 351.413C76.1082 351.376 75.8712 351.357 75.6208 351.357C75.0242 351.357 74.4916 351.482 74.0228 351.733C73.5594 351.978 73.1919 352.319 72.9202 352.756C72.6539 353.187 72.5207 353.68 72.5207 354.234V362H70.635ZM85.113 349.727V351.325H78.7529V349.727H85.113ZM80.6066 346.787H82.4923V358.484C82.4923 359.017 82.5695 359.417 82.724 359.683C82.8838 359.944 83.0862 360.12 83.3312 360.21C83.5816 360.295 83.8453 360.338 84.1222 360.338C84.33 360.338 84.5004 360.327 84.6336 360.306C84.7668 360.279 84.8733 360.258 84.9532 360.242L85.3367 361.936C85.2089 361.984 85.0305 362.032 84.8014 362.08C84.5724 362.133 84.282 362.16 83.9305 362.16C83.3978 362.16 82.8758 362.045 82.3644 361.816C81.8584 361.587 81.4376 361.238 81.102 360.77C80.7718 360.301 80.6066 359.71 80.6066 358.996V346.787ZM92.9632 362.256C91.7807 362.256 90.7607 361.995 89.9031 361.473C89.0508 360.945 88.3929 360.21 87.9295 359.267C87.4714 358.319 87.2424 357.217 87.2424 355.96C87.2424 354.702 87.4714 353.594 87.9295 352.636C88.3929 351.672 89.0375 350.92 89.8631 350.382C90.6941 349.839 91.6635 349.567 92.7715 349.567C93.4107 349.567 94.0419 349.674 94.6651 349.887C95.2884 350.1 95.8556 350.446 96.367 350.926C96.8784 351.4 97.2859 352.028 97.5895 352.811C97.8931 353.594 98.0449 354.559 98.0449 355.704V356.503H88.5847V354.873H96.1273C96.1273 354.18 95.9888 353.562 95.7118 353.019C95.4402 352.476 95.0513 352.047 94.5453 351.733C94.0446 351.419 93.4533 351.261 92.7715 351.261C92.0204 351.261 91.3706 351.448 90.8219 351.821C90.2786 352.188 89.8604 352.668 89.5675 353.259C89.2745 353.85 89.128 354.484 89.128 355.161V356.247C89.128 357.174 89.2878 357.96 89.6074 358.604C89.9324 359.243 90.3825 359.731 90.9577 360.066C91.533 360.397 92.2015 360.562 92.9632 360.562C93.4586 360.562 93.9061 360.493 94.3056 360.354C94.7104 360.21 95.0593 359.997 95.3523 359.715C95.6452 359.427 95.8716 359.07 96.0314 358.644L97.8532 359.156C97.6614 359.773 97.3391 360.317 96.8864 360.786C96.4336 361.249 95.8743 361.611 95.2085 361.872C94.5426 362.128 93.7942 362.256 92.9632 362.256ZM111.876 362.256C110.853 362.256 109.95 361.997 109.167 361.481C108.384 360.959 107.771 360.224 107.329 359.275C106.887 358.322 106.666 357.195 106.666 355.896C106.666 354.607 106.887 353.488 107.329 352.54C107.771 351.592 108.387 350.859 109.175 350.343C109.963 349.826 110.874 349.567 111.908 349.567C112.707 349.567 113.338 349.701 113.801 349.967C114.27 350.228 114.627 350.526 114.872 350.862C115.122 351.192 115.317 351.464 115.455 351.677H115.615V345.636H117.501V362H115.679V360.114H115.455C115.317 360.338 115.12 360.62 114.864 360.961C114.608 361.297 114.243 361.598 113.769 361.864C113.295 362.125 112.664 362.256 111.876 362.256ZM112.131 360.562C112.888 360.562 113.527 360.365 114.049 359.971C114.571 359.571 114.968 359.02 115.24 358.317C115.511 357.608 115.647 356.79 115.647 355.864C115.647 354.947 115.514 354.146 115.248 353.459C114.981 352.766 114.587 352.228 114.065 351.845C113.543 351.456 112.898 351.261 112.131 351.261C111.332 351.261 110.667 351.466 110.134 351.877C109.607 352.281 109.21 352.833 108.943 353.531C108.682 354.223 108.552 355.001 108.552 355.864C108.552 356.737 108.685 357.531 108.951 358.245C109.223 358.953 109.623 359.518 110.15 359.939C110.683 360.354 111.343 360.562 112.131 360.562ZM126.362 362.256C125.179 362.256 124.159 361.995 123.301 361.473C122.449 360.945 121.791 360.21 121.328 359.267C120.87 358.319 120.641 357.217 120.641 355.96C120.641 354.702 120.87 353.594 121.328 352.636C121.791 351.672 122.436 350.92 123.262 350.382C124.093 349.839 125.062 349.567 126.17 349.567C126.809 349.567 127.44 349.674 128.064 349.887C128.687 350.1 129.254 350.446 129.765 350.926C130.277 351.4 130.684 352.028 130.988 352.811C131.292 353.594 131.443 354.559 131.443 355.704V356.503H121.983V354.873H129.526C129.526 354.18 129.387 353.562 129.11 353.019C128.839 352.476 128.45 352.047 127.944 351.733C127.443 351.419 126.852 351.261 126.17 351.261C125.419 351.261 124.769 351.448 124.22 351.821C123.677 352.188 123.259 352.668 122.966 353.259C122.673 353.85 122.526 354.484 122.526 355.161V356.247C122.526 357.174 122.686 357.96 123.006 358.604C123.331 359.243 123.781 359.731 124.356 360.066C124.931 360.397 125.6 360.562 126.362 360.562C126.857 360.562 127.305 360.493 127.704 360.354C128.109 360.21 128.458 359.997 128.751 359.715C129.044 359.427 129.27 359.07 129.43 358.644L131.252 359.156C131.06 359.773 130.738 360.317 130.285 360.786C129.832 361.249 129.273 361.611 128.607 361.872C127.941 362.128 127.193 362.256 126.362 362.256ZM149.333 352.476L147.639 352.955C147.533 352.673 147.376 352.399 147.168 352.132C146.965 351.861 146.688 351.637 146.337 351.461C145.985 351.285 145.535 351.197 144.987 351.197C144.235 351.197 143.61 351.371 143.109 351.717C142.613 352.058 142.366 352.492 142.366 353.019C142.366 353.488 142.536 353.858 142.877 354.13C143.218 354.401 143.751 354.628 144.475 354.809L146.297 355.256C147.394 355.523 148.212 355.93 148.75 356.479C149.288 357.022 149.557 357.723 149.557 358.58C149.557 359.283 149.354 359.912 148.95 360.466C148.55 361.02 147.991 361.457 147.272 361.776C146.553 362.096 145.716 362.256 144.763 362.256C143.511 362.256 142.475 361.984 141.655 361.441C140.834 360.897 140.315 360.104 140.097 359.06L141.886 358.612C142.057 359.273 142.379 359.768 142.853 360.098C143.333 360.429 143.958 360.594 144.731 360.594C145.61 360.594 146.308 360.407 146.824 360.034C147.346 359.656 147.607 359.203 147.607 358.676C147.607 358.25 147.458 357.893 147.16 357.605C146.862 357.312 146.403 357.094 145.786 356.95L143.74 356.471C142.616 356.205 141.79 355.792 141.263 355.232C140.741 354.668 140.48 353.962 140.48 353.115C140.48 352.423 140.675 351.81 141.063 351.277C141.458 350.745 141.993 350.327 142.669 350.023C143.351 349.719 144.124 349.567 144.987 349.567C146.201 349.567 147.154 349.834 147.847 350.366C148.545 350.899 149.04 351.602 149.333 352.476ZM156.007 362.288C155.229 362.288 154.523 362.141 153.889 361.848C153.256 361.55 152.752 361.121 152.379 360.562C152.006 359.997 151.82 359.315 151.82 358.516C151.82 357.813 151.958 357.243 152.235 356.806C152.512 356.364 152.883 356.018 153.346 355.768C153.81 355.517 154.321 355.331 154.88 355.208C155.445 355.081 156.012 354.979 156.582 354.905C157.328 354.809 157.932 354.737 158.396 354.689C158.865 354.636 159.205 354.548 159.419 354.425C159.637 354.303 159.746 354.09 159.746 353.786V353.722C159.746 352.934 159.53 352.321 159.099 351.885C158.673 351.448 158.026 351.229 157.157 351.229C156.257 351.229 155.551 351.426 155.04 351.821C154.529 352.215 154.169 352.636 153.961 353.083L152.172 352.444C152.491 351.698 152.917 351.118 153.45 350.702C153.988 350.281 154.574 349.988 155.208 349.823C155.847 349.653 156.476 349.567 157.093 349.567C157.488 349.567 157.94 349.615 158.452 349.711C158.968 349.802 159.466 349.991 159.946 350.279C160.431 350.566 160.833 351 161.152 351.581C161.472 352.162 161.632 352.939 161.632 353.914V362H159.746V360.338H159.65C159.522 360.604 159.309 360.889 159.011 361.193C158.713 361.497 158.316 361.755 157.821 361.968C157.325 362.181 156.721 362.288 156.007 362.288ZM156.294 360.594C157.04 360.594 157.669 360.447 158.18 360.154C158.697 359.861 159.086 359.483 159.347 359.02C159.613 358.556 159.746 358.069 159.746 357.558V355.832C159.666 355.928 159.49 356.015 159.219 356.095C158.952 356.17 158.644 356.237 158.292 356.295C157.946 356.348 157.607 356.396 157.277 356.439C156.952 356.476 156.689 356.508 156.486 356.535C155.996 356.599 155.538 356.703 155.112 356.846C154.691 356.985 154.35 357.195 154.089 357.478C153.833 357.755 153.706 358.133 153.706 358.612C153.706 359.267 153.948 359.763 154.433 360.098C154.923 360.429 155.543 360.594 156.294 360.594ZM166.959 354.617V362H165.074V349.727H166.895V351.645H167.055C167.343 351.022 167.779 350.521 168.365 350.143C168.951 349.759 169.708 349.567 170.635 349.567C171.466 349.567 172.193 349.738 172.816 350.079C173.439 350.414 173.924 350.926 174.27 351.613C174.616 352.295 174.789 353.158 174.789 354.202V362H172.904V354.33C172.904 353.365 172.653 352.614 172.153 352.076C171.652 351.533 170.965 351.261 170.091 351.261C169.489 351.261 168.951 351.392 168.477 351.653C168.009 351.914 167.638 352.295 167.367 352.795C167.095 353.296 166.959 353.903 166.959 354.617ZM183.572 349.727V351.325H177.212V349.727H183.572ZM179.066 346.787H180.952V358.484C180.952 359.017 181.029 359.417 181.183 359.683C181.343 359.944 181.546 360.12 181.791 360.21C182.041 360.295 182.305 360.338 182.582 360.338C182.789 360.338 182.96 360.327 183.093 360.306C183.226 360.279 183.333 360.258 183.413 360.242L183.796 361.936C183.668 361.984 183.49 362.032 183.261 362.08C183.032 362.133 182.742 362.16 182.39 362.16C181.857 362.16 181.335 362.045 180.824 361.816C180.318 361.587 179.897 361.238 179.561 360.77C179.231 360.301 179.066 359.71 179.066 358.996V346.787ZM191.423 362.256C190.24 362.256 189.22 361.995 188.363 361.473C187.51 360.945 186.852 360.21 186.389 359.267C185.931 358.319 185.702 357.217 185.702 355.96C185.702 354.702 185.931 353.594 186.389 352.636C186.852 351.672 187.497 350.92 188.323 350.382C189.154 349.839 190.123 349.567 191.231 349.567C191.87 349.567 192.501 349.674 193.125 349.887C193.748 350.1 194.315 350.446 194.826 350.926C195.338 351.4 195.745 352.028 196.049 352.811C196.353 353.594 196.504 354.559 196.504 355.704V356.503H187.044V354.873H194.587C194.587 354.18 194.448 353.562 194.171 353.019C193.9 352.476 193.511 352.047 193.005 351.733C192.504 351.419 191.913 351.261 191.231 351.261C190.48 351.261 189.83 351.448 189.281 351.821C188.738 352.188 188.32 352.668 188.027 353.259C187.734 353.85 187.587 354.484 187.587 355.161V356.247C187.587 357.174 187.747 357.96 188.067 358.604C188.392 359.243 188.842 359.731 189.417 360.066C189.992 360.397 190.661 360.562 191.423 360.562C191.918 360.562 192.366 360.493 192.765 360.354C193.17 360.21 193.519 359.997 193.812 359.715C194.105 359.427 194.331 359.07 194.491 358.644L196.313 359.156C196.121 359.773 195.799 360.317 195.346 360.786C194.893 361.249 194.334 361.611 193.668 361.872C193.002 362.128 192.254 362.256 191.423 362.256ZM190.272 348.065L192.222 344.358H194.427L191.934 348.065H190.272ZM210.335 362.256C209.312 362.256 208.41 361.997 207.627 361.481C206.844 360.959 206.231 360.224 205.789 359.275C205.347 358.322 205.126 357.195 205.126 355.896C205.126 354.607 205.347 353.488 205.789 352.54C206.231 351.592 206.846 350.859 207.635 350.343C208.423 349.826 209.334 349.567 210.367 349.567C211.166 349.567 211.797 349.701 212.261 349.967C212.73 350.228 213.086 350.526 213.331 350.862C213.582 351.192 213.776 351.464 213.915 351.677H214.075V345.636H215.96V362H214.138V360.114H213.915C213.776 360.338 213.579 360.62 213.323 360.961C213.068 361.297 212.703 361.598 212.229 361.864C211.755 362.125 211.124 362.256 210.335 362.256ZM210.591 360.562C211.347 360.562 211.986 360.365 212.508 359.971C213.03 359.571 213.427 359.02 213.699 358.317C213.971 357.608 214.106 356.79 214.106 355.864C214.106 354.947 213.973 354.146 213.707 353.459C213.441 352.766 213.046 352.228 212.524 351.845C212.002 351.456 211.358 351.261 210.591 351.261C209.792 351.261 209.126 351.466 208.593 351.877C208.066 352.281 207.669 352.833 207.403 353.531C207.142 354.223 207.011 355.001 207.011 355.864C207.011 356.737 207.144 357.531 207.411 358.245C207.682 358.953 208.082 359.518 208.609 359.939C209.142 360.354 209.803 360.562 210.591 360.562ZM224.821 362.256C223.639 362.256 222.619 361.995 221.761 361.473C220.909 360.945 220.251 360.21 219.787 359.267C219.329 358.319 219.1 357.217 219.1 355.96C219.1 354.702 219.329 353.594 219.787 352.636C220.251 351.672 220.895 350.92 221.721 350.382C222.552 349.839 223.521 349.567 224.629 349.567C225.269 349.567 225.9 349.674 226.523 349.887C227.146 350.1 227.714 350.446 228.225 350.926C228.736 351.4 229.144 352.028 229.447 352.811C229.751 353.594 229.903 354.559 229.903 355.704V356.503H220.443V354.873H227.985C227.985 354.18 227.847 353.562 227.57 353.019C227.298 352.476 226.909 352.047 226.403 351.733C225.902 351.419 225.311 351.261 224.629 351.261C223.878 351.261 223.228 351.448 222.68 351.821C222.136 352.188 221.718 352.668 221.425 353.259C221.132 353.85 220.986 354.484 220.986 355.161V356.247C220.986 357.174 221.146 357.96 221.465 358.604C221.79 359.243 222.24 359.731 222.816 360.066C223.391 360.397 224.059 360.562 224.821 360.562C225.317 360.562 225.764 360.493 226.163 360.354C226.568 360.21 226.917 359.997 227.21 359.715C227.503 359.427 227.73 359.07 227.889 358.644L229.711 359.156C229.519 359.773 229.197 360.317 228.744 360.786C228.292 361.249 227.732 361.611 227.066 361.872C226.401 362.128 225.652 362.256 224.821 362.256ZM240.985 345.636V362H239.099V345.636H240.985ZM248.05 362.288C247.273 362.288 246.567 362.141 245.933 361.848C245.299 361.55 244.796 361.121 244.423 360.562C244.05 359.997 243.863 359.315 243.863 358.516C243.863 357.813 244.002 357.243 244.279 356.806C244.556 356.364 244.926 356.018 245.39 355.768C245.853 355.517 246.364 355.331 246.924 355.208C247.488 355.081 248.056 354.979 248.626 354.905C249.371 354.809 249.976 354.737 250.439 354.689C250.908 354.636 251.249 354.548 251.462 354.425C251.68 354.303 251.79 354.09 251.79 353.786V353.722C251.79 352.934 251.574 352.321 251.142 351.885C250.716 351.448 250.069 351.229 249.201 351.229C248.301 351.229 247.595 351.426 247.083 351.821C246.572 352.215 246.213 352.636 246.005 353.083L244.215 352.444C244.535 351.698 244.961 351.118 245.493 350.702C246.031 350.281 246.617 349.988 247.251 349.823C247.89 349.653 248.519 349.567 249.137 349.567C249.531 349.567 249.984 349.615 250.495 349.711C251.012 349.802 251.51 349.991 251.989 350.279C252.474 350.566 252.876 351 253.196 351.581C253.515 352.162 253.675 352.939 253.675 353.914V362H251.79V360.338H251.694C251.566 360.604 251.353 360.889 251.055 361.193C250.756 361.497 250.359 361.755 249.864 361.968C249.369 362.181 248.764 362.288 248.05 362.288ZM248.338 360.594C249.084 360.594 249.712 360.447 250.224 360.154C250.74 359.861 251.129 359.483 251.39 359.02C251.656 358.556 251.79 358.069 251.79 357.558V355.832C251.71 355.928 251.534 356.015 251.262 356.095C250.996 356.17 250.687 356.237 250.335 356.295C249.989 356.348 249.651 356.396 249.321 356.439C248.996 356.476 248.732 356.508 248.53 356.535C248.04 356.599 247.581 356.703 247.155 356.846C246.735 356.985 246.394 357.195 246.133 357.478C245.877 357.755 245.749 358.133 245.749 358.612C245.749 359.267 245.991 359.763 246.476 360.098C246.966 360.429 247.587 360.594 248.338 360.594ZM263.445 362V349.727H265.267V351.645H265.427C265.682 350.99 266.095 350.481 266.665 350.119C267.235 349.751 267.92 349.567 268.719 349.567C269.528 349.567 270.202 349.751 270.74 350.119C271.283 350.481 271.707 350.99 272.01 351.645H272.138C272.453 351.011 272.924 350.508 273.553 350.135C274.181 349.757 274.935 349.567 275.814 349.567C276.911 349.567 277.809 349.911 278.506 350.598C279.204 351.28 279.553 352.343 279.553 353.786V362H277.667V353.786C277.667 352.881 277.42 352.233 276.924 351.845C276.429 351.456 275.846 351.261 275.174 351.261C274.312 351.261 273.643 351.522 273.169 352.044C272.695 352.561 272.458 353.216 272.458 354.01V362H270.54V353.594C270.54 352.897 270.314 352.335 269.861 351.909C269.408 351.477 268.825 351.261 268.111 351.261C267.621 351.261 267.163 351.392 266.737 351.653C266.316 351.914 265.975 352.276 265.714 352.74C265.459 353.198 265.331 353.728 265.331 354.33V362H263.445ZM288.146 362.256C286.964 362.256 285.944 361.995 285.086 361.473C284.234 360.945 283.576 360.21 283.113 359.267C282.655 358.319 282.425 357.217 282.425 355.96C282.425 354.702 282.655 353.594 283.113 352.636C283.576 351.672 284.221 350.92 285.046 350.382C285.877 349.839 286.847 349.567 287.955 349.567C288.594 349.567 289.225 349.674 289.848 349.887C290.471 350.1 291.039 350.446 291.55 350.926C292.061 351.4 292.469 352.028 292.773 352.811C293.076 353.594 293.228 354.559 293.228 355.704V356.503H283.768V354.873H291.31C291.31 354.18 291.172 353.562 290.895 353.019C290.623 352.476 290.234 352.047 289.728 351.733C289.228 351.419 288.636 351.261 287.955 351.261C287.204 351.261 286.554 351.448 286.005 351.821C285.462 352.188 285.044 352.668 284.751 353.259C284.458 353.85 284.311 354.484 284.311 355.161V356.247C284.311 357.174 284.471 357.96 284.791 358.604C285.115 359.243 285.566 359.731 286.141 360.066C286.716 360.397 287.385 360.562 288.146 360.562C288.642 360.562 289.089 360.493 289.489 360.354C289.894 360.21 290.242 359.997 290.535 359.715C290.828 359.427 291.055 359.07 291.215 358.644L293.036 359.156C292.845 359.773 292.522 360.317 292.069 360.786C291.617 361.249 291.057 361.611 290.392 361.872C289.726 362.128 288.977 362.256 288.146 362.256ZM286.996 348.065L288.945 344.358H291.151L288.658 348.065H286.996ZM301.434 349.727V351.325H295.074V349.727H301.434ZM296.927 346.787H298.813V358.484C298.813 359.017 298.89 359.417 299.045 359.683C299.205 359.944 299.407 360.12 299.652 360.21C299.902 360.295 300.166 360.338 300.443 360.338C300.651 360.338 300.821 360.327 300.954 360.306C301.088 360.279 301.194 360.258 301.274 360.242L301.658 361.936C301.53 361.984 301.351 362.032 301.122 362.08C300.893 362.133 300.603 362.16 300.251 362.16C299.719 362.16 299.197 362.045 298.685 361.816C298.179 361.587 297.758 361.238 297.423 360.77C297.093 360.301 296.927 359.71 296.927 358.996V346.787ZM304.27 362V349.727H306.092V351.581H306.22C306.444 350.974 306.848 350.481 307.434 350.103C308.02 349.725 308.681 349.536 309.416 349.536C309.554 349.536 309.727 349.538 309.935 349.544C310.143 349.549 310.3 349.557 310.407 349.567V351.485C310.343 351.469 310.196 351.445 309.967 351.413C309.743 351.376 309.506 351.357 309.256 351.357C308.659 351.357 308.127 351.482 307.658 351.733C307.195 351.978 306.827 352.319 306.555 352.756C306.289 353.187 306.156 353.68 306.156 354.234V362H304.27ZM317.254 362.256C316.146 362.256 315.174 361.992 314.338 361.465C313.507 360.937 312.857 360.2 312.388 359.251C311.925 358.303 311.693 357.195 311.693 355.928C311.693 354.649 311.925 353.533 312.388 352.58C312.857 351.626 313.507 350.886 314.338 350.358C315.174 349.831 316.146 349.567 317.254 349.567C318.362 349.567 319.332 349.831 320.163 350.358C320.999 350.886 321.649 351.626 322.112 352.58C322.581 353.533 322.815 354.649 322.815 355.928C322.815 357.195 322.581 358.303 322.112 359.251C321.649 360.2 320.999 360.937 320.163 361.465C319.332 361.992 318.362 362.256 317.254 362.256ZM317.254 360.562C318.096 360.562 318.788 360.346 319.332 359.915C319.875 359.483 320.277 358.916 320.538 358.213C320.799 357.51 320.93 356.748 320.93 355.928C320.93 355.107 320.799 354.343 320.538 353.634C320.277 352.926 319.875 352.353 319.332 351.917C318.788 351.48 318.096 351.261 317.254 351.261C316.413 351.261 315.72 351.48 315.177 351.917C314.633 352.353 314.231 352.926 313.97 353.634C313.709 354.343 313.579 355.107 313.579 355.928C313.579 356.748 313.709 357.51 313.97 358.213C314.231 358.916 314.633 359.483 315.177 359.915C315.72 360.346 316.413 360.562 317.254 360.562ZM325.694 366.602V349.727H327.515V351.677H327.739C327.878 351.464 328.069 351.192 328.314 350.862C328.565 350.526 328.922 350.228 329.385 349.967C329.854 349.701 330.488 349.567 331.287 349.567C332.32 349.567 333.231 349.826 334.019 350.343C334.808 350.859 335.423 351.592 335.865 352.54C336.307 353.488 336.528 354.607 336.528 355.896C336.528 357.195 336.307 358.322 335.865 359.275C335.423 360.224 334.81 360.959 334.027 361.481C333.244 361.997 332.341 362.256 331.319 362.256C330.53 362.256 329.899 362.125 329.425 361.864C328.951 361.598 328.586 361.297 328.33 360.961C328.075 360.62 327.878 360.338 327.739 360.114H327.579V366.602H325.694ZM327.547 355.864C327.547 356.79 327.683 357.608 327.955 358.317C328.226 359.02 328.623 359.571 329.145 359.971C329.667 360.365 330.307 360.562 331.063 360.562C331.851 360.562 332.509 360.354 333.036 359.939C333.569 359.518 333.969 358.953 334.235 358.245C334.507 357.531 334.642 356.737 334.642 355.864C334.642 355.001 334.509 354.223 334.243 353.531C333.982 352.833 333.585 352.281 333.052 351.877C332.525 351.466 331.862 351.261 331.063 351.261C330.296 351.261 329.651 351.456 329.129 351.845C328.607 352.228 328.213 352.766 327.947 353.459C327.68 354.146 327.547 354.947 327.547 355.864ZM344.39 362.256C343.282 362.256 342.31 361.992 341.474 361.465C340.643 360.937 339.993 360.2 339.524 359.251C339.061 358.303 338.829 357.195 338.829 355.928C338.829 354.649 339.061 353.533 339.524 352.58C339.993 351.626 340.643 350.886 341.474 350.358C342.31 349.831 343.282 349.567 344.39 349.567C345.498 349.567 346.468 349.831 347.299 350.358C348.135 350.886 348.785 351.626 349.248 352.58C349.717 353.533 349.951 354.649 349.951 355.928C349.951 357.195 349.717 358.303 349.248 359.251C348.785 360.2 348.135 360.937 347.299 361.465C346.468 361.992 345.498 362.256 344.39 362.256ZM344.39 360.562C345.232 360.562 345.924 360.346 346.468 359.915C347.011 359.483 347.413 358.916 347.674 358.213C347.935 357.51 348.066 356.748 348.066 355.928C348.066 355.107 347.935 354.343 347.674 353.634C347.413 352.926 347.011 352.353 346.468 351.917C345.924 351.48 345.232 351.261 344.39 351.261C343.549 351.261 342.856 351.48 342.313 351.917C341.77 352.353 341.367 352.926 341.106 353.634C340.845 354.343 340.715 355.107 340.715 355.928C340.715 356.748 340.845 357.51 341.106 358.213C341.367 358.916 341.77 359.483 342.313 359.915C342.856 360.346 343.549 360.562 344.39 360.562ZM354.716 345.636V362H352.83V345.636H354.716ZM363.315 362.256C362.132 362.256 361.112 361.995 360.255 361.473C359.402 360.945 358.744 360.21 358.281 359.267C357.823 358.319 357.594 357.217 357.594 355.96C357.594 354.702 357.823 353.594 358.281 352.636C358.744 351.672 359.389 350.92 360.215 350.382C361.046 349.839 362.015 349.567 363.123 349.567C363.762 349.567 364.393 349.674 365.017 349.887C365.64 350.1 366.207 350.446 366.719 350.926C367.23 351.4 367.637 352.028 367.941 352.811C368.245 353.594 368.396 354.559 368.396 355.704V356.503H358.936V354.873H366.479C366.479 354.18 366.34 353.562 366.063 353.019C365.792 352.476 365.403 352.047 364.897 351.733C364.396 351.419 363.805 351.261 363.123 351.261C362.372 351.261 361.722 351.448 361.173 351.821C360.63 352.188 360.212 352.668 359.919 353.259C359.626 353.85 359.48 354.484 359.48 355.161V356.247C359.48 357.174 359.639 357.96 359.959 358.604C360.284 359.243 360.734 359.731 361.309 360.066C361.885 360.397 362.553 360.562 363.315 360.562C363.81 360.562 364.258 360.493 364.657 360.354C365.062 360.21 365.411 359.997 365.704 359.715C365.997 359.427 366.223 359.07 366.383 358.644L368.205 359.156C368.013 359.773 367.691 360.317 367.238 360.786C366.785 361.249 366.226 361.611 365.56 361.872C364.894 362.128 364.146 362.256 363.315 362.256Z" fill="#17305B"/>
</svg>
